<svg x="0px" y="0px" viewBox="0 0 200 200">
<path d="M166.7,30H33.3c-1.8,0-3.3,1.5-3.3,3.3v103.3c0,1.8,1.5,3.3,3.3,3.3c14.7,0,26.7,11.9,26.7,26.7c0,1.8,1.5,3.3,3.3,3.3
	h103.3c1.8,0,3.3-1.5,3.3-3.3V33.3C170,31.5,168.5,30,166.7,30z M163.3,163.3H66.5c-1.6-15.8-14.1-28.2-29.8-29.8V36.7h126.7V163.3z
	"/>
<path d="M66.7,136.7h66.7c1.8,0,3.3-1.5,3.3-3.3V66.7c0-1.8-1.5-3.3-3.3-3.3H66.7c-1.8,0-3.3,1.5-3.3,3.3v66.7
	C63.3,135.2,64.8,136.7,66.7,136.7z M70,70h60v60H70V70z"/>
<path d="M40,150c-5.5,0-10,4.5-10,10s4.5,10,10,10s10-4.5,10-10S45.5,150,40,150z M40,163.3c-1.8,0-3.3-1.5-3.3-3.3s1.5-3.3,3.3-3.3
	s3.3,1.5,3.3,3.3S41.8,163.3,40,163.3z"/>
<path d="M196.7,63.3c1.8,0,3.3-1.5,3.3-3.3s-1.5-3.3-3.3-3.3h-13.3V43.3h13.3c1.8,0,3.3-1.5,3.3-3.3s-1.5-3.3-3.3-3.3h-13.3v-3.3
	c0-9.2-7.5-16.7-16.7-16.7h-3.3V3.3c0-1.8-1.5-3.3-3.3-3.3s-3.3,1.5-3.3,3.3v13.3h-13.3V3.3c0-1.8-1.5-3.3-3.3-3.3s-3.3,1.5-3.3,3.3
	v13.3h-13.3V3.3c0-1.8-1.5-3.3-3.3-3.3s-3.3,1.5-3.3,3.3v13.3h-13.3V3.3c0-1.8-1.5-3.3-3.3-3.3s-3.3,1.5-3.3,3.3v13.3H83.3V3.3
	C83.3,1.5,81.8,0,80,0s-3.3,1.5-3.3,3.3v13.3H63.3V3.3C63.3,1.5,61.8,0,60,0s-3.3,1.5-3.3,3.3v13.3H43.3V3.3C43.3,1.5,41.8,0,40,0
	s-3.3,1.5-3.3,3.3v13.3h-3.3c-9.2,0-16.7,7.5-16.7,16.7v3.3H3.3C1.5,36.7,0,38.2,0,40s1.5,3.3,3.3,3.3h13.3v13.3H3.3
	C1.5,56.7,0,58.2,0,60s1.5,3.3,3.3,3.3h13.3v13.3H3.3C1.5,76.7,0,78.2,0,80s1.5,3.3,3.3,3.3h13.3v13.3H3.3C1.5,96.7,0,98.2,0,100
	s1.5,3.3,3.3,3.3h13.3v13.3H3.3c-1.8,0-3.3,1.5-3.3,3.3s1.5,3.3,3.3,3.3h13.3v13.3H3.3c-1.8,0-3.3,1.5-3.3,3.3s1.5,3.3,3.3,3.3h13.3
	v13.3H3.3c-1.8,0-3.3,1.5-3.3,3.3s1.5,3.3,3.3,3.3h13.3v3.3c0,9.2,7.5,16.7,16.7,16.7h3.3v13.3c0,1.8,1.5,3.3,3.3,3.3
	s3.3-1.5,3.3-3.3v-13.3h13.3v13.3c0,1.8,1.5,3.3,3.3,3.3s3.3-1.5,3.3-3.3v-13.3h13.3v13.3c0,1.8,1.5,3.3,3.3,3.3s3.3-1.5,3.3-3.3
	v-13.3h13.3v13.3c0,1.8,1.5,3.3,3.3,3.3s3.3-1.5,3.3-3.3v-13.3h13.3v13.3c0,1.8,1.5,3.3,3.3,3.3s3.3-1.5,3.3-3.3v-13.3h13.3v13.3
	c0,1.8,1.5,3.3,3.3,3.3s3.3-1.5,3.3-3.3v-13.3h13.3v13.3c0,1.8,1.5,3.3,3.3,3.3s3.3-1.5,3.3-3.3v-13.3h3.3c9.2,0,16.7-7.5,16.7-16.7
	v-3.3h13.3c1.8,0,3.3-1.5,3.3-3.3s-1.5-3.3-3.3-3.3h-13.3v-13.3h13.3c1.8,0,3.3-1.5,3.3-3.3s-1.5-3.3-3.3-3.3h-13.3v-13.3h13.3
	c1.8,0,3.3-1.5,3.3-3.3s-1.5-3.3-3.3-3.3h-13.3v-13.3h13.3c1.8,0,3.3-1.5,3.3-3.3s-1.5-3.3-3.3-3.3h-13.3V83.3h13.3
	c1.8,0,3.3-1.5,3.3-3.3s-1.5-3.3-3.3-3.3h-13.3V63.3H196.7z M176.7,166.7c0,5.5-4.5,10-10,10H33.3c-5.5,0-10-4.5-10-10V33.3
	c0-5.5,4.5-10,10-10h133.3c5.5,0,10,4.5,10,10V166.7z"/>
</svg>
