<?xml version="1.0" encoding="utf-8"?>
<!-- Generator: Adobe Illustrator 23.0.0, SVG Export Plug-In . SVG Version: 6.00 Build 0)  -->
<svg version="1.1" id="Capa_1" xmlns="http://www.w3.org/2000/svg" xmlns:xlink="http://www.w3.org/1999/xlink" x="0px" y="0px"
	 viewBox="0 0 200 200" style="enable-background:new 0 0 200 200;" xml:space="preserve">
<g>
	<path d="M178.8,178.8H21.3V21.3h157.5V178.8z M28.8,171.3h142.5V28.8H28.8V171.3z"/>
	<path d="M160.4,160.4H39.6V39.6h120.8L160.4,160.4L160.4,160.4z M47.1,152.9h105.8V47.1H47.1V152.9z"/>
	<g>
		<rect x="39.6" width="7.5" height="16.7"/>
		<rect x="55.8" width="7.5" height="16.7"/>
		<rect x="72" width="7.5" height="16.7"/>
		<rect x="88.2" width="7.5" height="16.7"/>
		<rect x="104.3" width="7.5" height="16.7"/>
		<rect x="120.5" width="7.5" height="16.7"/>
		<rect x="136.7" width="7.5" height="16.7"/>
		<rect x="152.9" width="7.5" height="16.7"/>
	</g>
	<g>
		<rect x="39.6" y="183.3" width="7.5" height="16.7"/>
		<rect x="55.8" y="183.3" width="7.5" height="16.7"/>
		<rect x="72" y="183.3" width="7.5" height="16.7"/>
		<rect x="88.2" y="183.3" width="7.5" height="16.7"/>
		<rect x="104.3" y="183.3" width="7.5" height="16.7"/>
		<rect x="120.5" y="183.3" width="7.5" height="16.7"/>
		<rect x="136.7" y="183.3" width="7.5" height="16.7"/>
		<rect x="152.9" y="183.3" width="7.5" height="16.7"/>
	</g>
	<g>
		<rect x="183.3" y="39.6" width="16.7" height="7.5"/>
		<rect x="183.3" y="55.8" width="16.7" height="7.5"/>
		<rect x="183.3" y="72" width="16.7" height="7.5"/>
		<rect x="183.3" y="88.2" width="16.7" height="7.5"/>
		<rect x="183.3" y="104.3" width="16.7" height="7.5"/>
		<rect x="183.3" y="120.5" width="16.7" height="7.5"/>
		<rect x="183.3" y="136.7" width="16.7" height="7.5"/>
		<rect x="183.3" y="152.9" width="16.7" height="7.5"/>
	</g>
	<g>
		<rect y="39.6" width="16.7" height="7.5"/>
		<rect y="55.8" width="16.7" height="7.5"/>
		<rect y="72" width="16.7" height="7.5"/>
		<rect y="88.2" width="16.7" height="7.5"/>
		<rect y="104.3" width="16.7" height="7.5"/>
		<rect y="120.5" width="16.7" height="7.5"/>
		<rect y="136.7" width="16.7" height="7.5"/>
		<rect y="152.9" width="16.7" height="7.5"/>
	</g>
	<g>
		<rect x="73.8" y="73.8" width="7.5" height="7.5"/>
		<rect x="88.8" y="73.8" width="7.5" height="7.5"/>
		<rect x="103.8" y="73.8" width="7.5" height="7.5"/>
		<rect x="118.8" y="73.8" width="7.5" height="7.5"/>
		<rect x="73.8" y="88.8" width="7.5" height="7.5"/>
		<rect x="88.8" y="88.8" width="7.5" height="7.5"/>
		<rect x="103.8" y="88.8" width="7.5" height="7.5"/>
		<rect x="118.8" y="88.8" width="7.5" height="7.5"/>
		<rect x="73.8" y="103.8" width="7.5" height="7.5"/>
		<rect x="88.8" y="103.8" width="7.5" height="7.5"/>
		<rect x="103.8" y="103.8" width="7.5" height="7.5"/>
		<rect x="118.8" y="103.8" width="7.5" height="7.5"/>
		<rect x="73.8" y="118.8" width="7.5" height="7.5"/>
		<rect x="88.8" y="118.8" width="7.5" height="7.5"/>
		<rect x="103.8" y="118.8" width="7.5" height="7.5"/>
		<rect x="118.8" y="118.8" width="7.5" height="7.5"/>
	</g>
</g>
</svg>
