<svg viewBox="0 0 200 200">
<path d="M196.2,91.1L108.9,3.8c-5-5-13.2-5-18.2,0c0,0,0,0,0,0L70.4,24.1l15.3,15.3c9.3-4.5,20.5-0.5,25,8.8
	c2.5,5.1,2.5,11.1,0,16.2l25,25c9.3-4.5,20.5-0.5,25,8.8c4.5,9.3,0.5,20.5-8.8,25c-9.3,4.5-20.5,0.5-25-8.8
	c-2.4-5.1-2.4-11.1,0-16.2l-25-25c-0.6,0.3-1.2,0.5-1.8,0.8v52.1c9.8,3.5,14.9,14.2,11.4,23.9c-3.5,9.8-14.2,14.9-23.9,11.4
	c-9.8-3.5-14.9-14.2-11.4-23.9c1.9-5.3,6.1-9.5,11.4-11.4V73.9C77.7,70.5,72.6,59.8,76.1,50c0.2-0.6,0.5-1.2,0.8-1.8L61.6,32.9
	L3.8,90.7c-5,5-5,13.2,0,18.2l87.3,87.3c5,5,13.2,5,18.2,0c0,0,0,0,0,0l86.9-86.9C201.2,104.3,201.2,96.1,196.2,91.1L196.2,91.1z"/>
</svg>
