<svg viewBox="0 0 200 227.4">
<g id="html-5_1_">
	<path d="M7.4,0C3,0-0.4,3.8,0,8.2l16.9,189.5c0.4,4.4,4.2,9.1,8.5,10.3l66.7,18.5c4.3,1.2,11.3,1.2,15.6,0l66.8-18.5
		c4.3-1.2,8.1-5.8,8.5-10.2L200,8.2c0.4-4.4-2.9-8.2-7.4-8.2H7.4z M161.6,57.7c-0.4,4.4-4.4,6.3-8.9,6.3H72.5
		c-4.4,0-7.8,5.4-7.4,9.8L66,85.8c0.4,4.4,4.4,10.3,8.8,10.3h75.7c4.4,0,7.8,2.2,7.4,6.7l-5.5,60.6c-0.4,4.4-4.2,8.7-8.5,9.9
		l-36.1,9.8c-4.3,1.2-11.3,1.1-15.6-0.1l-36-10c-4.3-1.2-8.1-5.8-8.5-10.2l-2.2-25.5c-0.4-4.4,2.9-9.1,7.4-9.1h9.1
		c4.5,0,8.4,4.7,8.8,9.1l0.4,5.4c0.4,4.4,4.2,9.3,8.5,10.4l12.4,3.5c4.3,1.2,11.3,1.2,15.6,0.1l12.5-3.3c4.3-1.2,8.1-5.7,8.5-10.2
		l1.5-15.8c0.4-4.4-2.9-7.3-7.4-7.3H51.7c-4.4,0-8.4-4.4-8.8-8.9l-5.4-61.6c-0.4-4.4,2.9-9.6,7.4-9.6h110.2c4.5,0,7.8,3.9,7.4,8.3
		L161.6,57.7z"/>
</g>
</svg>
