<svg viewBox="0 0 174.3 200">
<g>
	<path d="M79.5,85.6h-6.4c-1.2,0-2.1,0.9-2.1,2.1v28.2c0.2,2.2-0.3,4.4-1.5,6.3c-1.1,1.3-2.8,1.9-4.4,1.8c-1.3,0-2.5-0.4-3.5-1.1
		c-0.7-0.5-1.3-1.1-1.9-1.8c-0.7-0.9-2-1.1-2.9-0.4l-3.8,2.8c-0.9,0.7-1.1,2-0.4,2.9c1.3,1.9,3,3.6,5,4.7c2.7,1.5,5.8,2.2,8.9,2.1
		c2.3,0.1,4.6-0.4,6.7-1.3c1.8-0.8,3.4-2,4.7-3.5c1.3-1.6,2.3-3.4,2.8-5.3c0.6-2.1,0.9-4.2,0.9-6.4V87.7
		C81.6,86.5,80.7,85.6,79.5,85.6C79.5,85.6,79.5,85.6,79.5,85.6z"/>
	<path d="M112.2,106l-6-2.4l-2.8-1.2c-0.8-0.3-1.5-0.7-2.2-1.2c-0.6-0.4-1.1-0.8-1.5-1.4c-0.4-0.5-0.6-1.2-0.5-1.8
		c0-1.2,0.6-2.4,1.6-3.1c1.3-0.8,2.8-1.2,4.3-1.1c1.7,0,3.5,0.3,5.1,1c1.1,0.5,2.1,1,3,1.7c0.9,0.6,2.1,0.4,2.8-0.4l2.9-3.6
		c0.7-0.9,0.5-2.2-0.3-3c-1.6-1.3-3.5-2.4-5.4-3.2c-2.6-1-5.4-1.6-8.2-1.6c-2.3,0-4.5,0.4-6.7,1.1c-1.9,0.7-3.7,1.7-5.2,3.1
		c-1.5,1.2-2.6,2.7-3.4,4.4c-0.8,1.7-1.2,3.5-1.2,5.4c0,1.6,0.2,3.1,0.8,4.6c0.5,1.3,1.2,2.5,2.1,3.6c0.9,1,1.9,1.9,3,2.7
		c1.1,0.8,2.3,1.4,3.5,1.9l6.1,2.6l2.8,1.2c0.8,0.3,1.5,0.7,2.2,1.2c0.6,0.4,1,0.8,1.4,1.4c0.3,0.6,0.5,1.2,0.5,1.8
		c0,1.3-0.6,2.5-1.6,3.3c-1.5,0.9-3.2,1.4-4.9,1.2c-2.1,0-4.1-0.5-6-1.4c-1.4-0.6-2.8-1.4-4.1-2.3c-0.9-0.6-2.1-0.5-2.8,0.4
		l-3.4,4.1c-0.7,0.9-0.6,2.2,0.3,2.9c0,0,0,0,0.1,0.1c1.9,1.5,4.1,2.8,6.4,3.6c2.9,1.1,6,1.7,9.1,1.7c2.5,0,5.1-0.4,7.4-1.2
		c2-0.7,3.9-1.8,5.5-3.2c1.5-1.3,2.6-2.8,3.4-4.6c0.8-1.7,1.2-3.6,1.2-5.5c0.1-2.9-0.7-5.7-2.5-8C117.1,108.7,114.8,107,112.2,106z"
		/>
	<path d="M169.4,45.2L133.6,6.1C130.1,2.2,125,0,119.8,0h-101C8.4,0,0,8.4,0,18.8v162.5C0,191.6,8.4,200,18.8,200h136.8
		c10.4,0,18.7-8.4,18.8-18.8V57.8C174.3,53.1,172.5,48.6,169.4,45.2z M157.5,50.8h-23c-3.5,0-6.3-2.8-6.2-6.3c0,0,0,0,0,0V18.8
		L157.5,50.8z M155.5,187.5H18.8c-3.5,0-6.3-2.8-6.3-6.3V18.8c0-3.5,2.8-6.3,6.3-6.3h97v32c0,10.4,8.4,18.7,18.8,18.8h27.3v118
		C161.8,184.7,159,187.5,155.5,187.5z"/>
</g>
</svg>
