<svg x="0px" y="0px" viewBox="0 0 200 200">
	<path d="M0,181.4l18.1-19.5c4.6,6.7,11.9,10.7,19.7,10.9c11,0,18.7-6.3,18.7-25V2.4h28.3v146.6c0,33.3-17.3,50.8-44.9,50.8
		C22.5,199.7,9.7,194,0,181.4z"/>
	<path d="M100.6,180.5l16.7-21.1c7.3,7.2,15.9,14.1,29.1,14.1c15.4,0,25.4-9.8,25.4-24.1v-2.3c0-11.5-5.1-19.9-18.7-31.9
		l-17.8-15.9c-16.6-15.6-26.6-29.2-26.6-51.4v-2c0-27.2,19-45.8,46.2-45.8c13.7-0.7,27.2,3.7,38.3,12.3l-13.3,22.9
		c-6.8-5.8-15.3-8.9-24-8.9c-10.8,0-19.7,7.5-19.7,18.6v1.4c0,12.3,5.9,19.9,18.3,30.7l18.4,16.3c17.8,15.9,27.2,31,27.2,52.2v2.9
		c0,29.2-18.7,51.3-52.4,51.3C125.7,200,111.4,192.2,100.6,180.5z"/>
</svg>
