<svg viewBox="0 0 200 175">
<g>
	<path d="M15.5,27.8c0.8,0,1.5-0.3,2.1-0.9c0.5-0.5,0.9-1.3,0.9-2.1c0-0.8-0.3-1.5-0.9-2.1c-0.5-0.5-1.3-0.9-2.1-0.9
		s-1.5,0.3-2.1,0.9c-0.5,0.5-0.9,1.3-0.9,2.1c0,0.8,0.3,1.5,0.9,2.1C13.9,27.5,14.7,27.8,15.5,27.8z"/>
	<path d="M24.9,27.8c0.8,0,1.5-0.3,2.1-0.9c0.5-0.5,0.9-1.3,0.9-2.1c0-0.8-0.3-1.5-0.9-2.1c-0.5-0.5-1.3-0.9-2.1-0.9
		s-1.5,0.3-2.1,0.9c-0.5,0.5-0.9,1.3-0.9,2.1c0,0.8,0.3,1.5,0.9,2.1C23.3,27.5,24.1,27.8,24.9,27.8z"/>
	<path d="M34.2,27.8c0.8,0,1.5-0.3,2.1-0.9c0.5-0.5,0.9-1.3,0.9-2.1c0-0.8-0.3-1.5-0.9-2.1c-0.5-0.5-1.3-0.9-2.1-0.9
		s-1.5,0.3-2.1,0.9c-0.5,0.5-0.9,1.3-0.9,2.1c0,0.8,0.3,1.5,0.9,2.1C32.7,27.5,33.5,27.8,34.2,27.8z"/>
	<path d="M178.3,27.8h6.3c1.6,0,2.9-1.3,2.9-2.9c0-1.6-1.3-2.9-2.9-2.9h-6.3c-1.6,0-2.9,1.3-2.9,2.9
		C175.3,26.5,176.7,27.8,178.3,27.8z"/>
	<path d="M172,109.6h-31.3c-5.1,0-9.2,4.1-9.2,9.2v21.9c0,5.1,4.1,9.2,9.2,9.2H172c5.1,0,9.2-4.1,9.2-9.2v-21.9
		C181.2,113.7,177.1,109.6,172,109.6z M175.3,140.7c0,1.8-1.5,3.3-3.3,3.3h-31.3c-1.8,0-3.3-1.5-3.3-3.3v-21.9
		c0-1.8,1.5-3.3,3.3-3.3H172c1.8,0,3.3,1.5,3.3,3.3V140.7z"/>
	<path d="M140.7,77.9c5.1,0,9.2-4.1,9.2-9.2c0-5.1-4.1-9.2-9.2-9.2s-9.2,4.1-9.2,9.2C131.5,73.8,135.6,77.9,140.7,77.9z M140.7,65.4
		c1.8,0,3.3,1.5,3.3,3.3c0,1.8-1.5,3.3-3.3,3.3s-3.3-1.5-3.3-3.3C137.4,66.9,138.9,65.4,140.7,65.4z"/>
	<path d="M165.8,122.1H147c-1.6,0-2.9,1.3-2.9,2.9c0,1.6,1.3,2.9,2.9,2.9h18.8c1.6,0,2.9-1.3,2.9-2.9
		C168.7,123.4,167.4,122.1,165.8,122.1z"/>
	<path d="M156.4,131.5H147c-1.6,0-2.9,1.3-2.9,2.9c0,1.6,1.3,2.9,2.9,2.9h9.4c1.6,0,2.9-1.3,2.9-2.9
		C159.3,132.8,158,131.5,156.4,131.5z"/>
	<path d="M15.5,56h6.3c1.6,0,2.9-1.3,2.9-2.9s-1.3-2.9-2.9-2.9h-6.3c-1.6,0-2.9,1.3-2.9,2.9S13.8,56,15.5,56z"/>
	<path d="M15.5,71.6h6.3c1.6,0,2.9-1.3,2.9-2.9c0-1.6-1.3-2.9-2.9-2.9h-6.3c-1.6,0-2.9,1.3-2.9,2.9C12.5,70.3,13.8,71.6,15.5,71.6z"
		/>
	<path d="M24.9,81.4h-3.1c-1.6,0-2.9,1.3-2.9,2.9s1.3,2.9,2.9,2.9h3.1c1.6,0,2.9-1.3,2.9-2.9S26.5,81.4,24.9,81.4z"/>
	<path d="M15.5,102.9h6.3c1.6,0,2.9-1.3,2.9-2.9s-1.3-2.9-2.9-2.9h-6.3c-1.6,0-2.9,1.3-2.9,2.9S13.8,102.9,15.5,102.9z"/>
	<path d="M34.2,56h12.5c1.6,0,2.9-1.3,2.9-2.9s-1.3-2.9-2.9-2.9H34.2c-1.6,0-2.9,1.3-2.9,2.9S32.6,56,34.2,56z"/>
	<path d="M34.2,102.9h25c1.6,0,2.9-1.3,2.9-2.9s-1.3-2.9-2.9-2.9h-25c-1.6,0-2.9,1.3-2.9,2.9S32.6,102.9,34.2,102.9z"/>
	<path d="M34.2,71.6h31.3c1.6,0,2.9-1.3,2.9-2.9c0-1.6-1.3-2.9-2.9-2.9H34.2c-1.6,0-2.9,1.3-2.9,2.9C31.3,70.3,32.6,71.6,34.2,71.6z
		"/>
	<path d="M37.4,81.4c-1.6,0-2.9,1.3-2.9,2.9s1.3,2.9,2.9,2.9h12.5c1.6,0,2.9-1.3,2.9-2.9s-1.3-2.9-2.9-2.9H37.4z"/>
	<path d="M74.8,84.3c0-1.6-1.3-2.9-2.9-2.9h-9.4c-1.6,0-2.9,1.3-2.9,2.9s1.3,2.9,2.9,2.9h9.4C73.4,87.3,74.8,86,74.8,84.3z"/>
	<path d="M84.3,81.4c-0.8,0-1.5,0.3-2.1,0.9c-0.5,0.5-0.9,1.3-0.9,2.1c0,0.8,0.3,1.5,0.9,2.1c0.5,0.5,1.3,0.9,2.1,0.9
		c0.8,0,1.5-0.3,2.1-0.9c0.5-0.5,0.9-1.3,0.9-2.1c0-0.8-0.3-1.5-0.9-2.1C85.9,81.7,85.1,81.4,84.3,81.4z"/>
	<path d="M76,113.6c-0.5,0.5-0.9,1.3-0.9,2.1c0,0.8,0.3,1.5,0.9,2.1c0.5,0.5,1.3,0.9,2.1,0.9s1.5-0.3,2.1-0.9
		c0.5-0.5,0.9-1.3,0.9-2.1c0-0.8-0.3-1.5-0.9-2.1c-0.5-0.5-1.3-0.9-2.1-0.9S76.6,113,76,113.6z"/>
	<path d="M24.9,112.7h-3.1c-1.6,0-2.9,1.3-2.9,2.9s1.3,2.9,2.9,2.9h3.1c1.6,0,2.9-1.3,2.9-2.9S26.5,112.7,24.9,112.7z"/>
	<path d="M68.5,115.7c0-1.6-1.3-2.9-2.9-2.9H37.4c-1.6,0-2.9,1.3-2.9,2.9s1.3,2.9,2.9,2.9h28.2C67.2,118.6,68.5,117.3,68.5,115.7z"
		/>
	<path d="M24.9,128.4h-3.1c-1.6,0-2.9,1.3-2.9,2.9c0,1.6,1.3,2.9,2.9,2.9h3.1c1.6,0,2.9-1.3,2.9-2.9
		C27.8,129.7,26.5,128.4,24.9,128.4z"/>
	<path d="M37.4,128.4c-1.6,0-2.9,1.3-2.9,2.9c0,1.6,1.3,2.9,2.9,2.9h18.8c1.6,0,2.9-1.3,2.9-2.9c0-1.6-1.3-2.9-2.9-2.9H37.4z"/>
	<path d="M81,131.3c0-1.6-1.3-2.9-2.9-2.9h-9.4c-1.6,0-2.9,1.3-2.9,2.9c0,1.6,1.3,2.9,2.9,2.9h9.4C79.7,134.2,81,132.9,81,131.3z"/>
	<path d="M21.7,144h-6.3c-1.6,0-2.9,1.3-2.9,2.9c0,1.6,1.3,2.9,2.9,2.9h6.3c1.6,0,2.9-1.3,2.9-2.9C24.7,145.3,23.3,144,21.7,144z"/>
	<path d="M43.6,144h-9.4c-1.6,0-2.9,1.3-2.9,2.9c0,1.6,1.3,2.9,2.9,2.9h9.4c1.6,0,2.9-1.3,2.9-2.9C46.6,145.3,45.3,144,43.6,144z"/>
	<path d="M87.5,144h-6.3c-1.6,0-2.9,1.3-2.9,2.9c0,1.6,1.3,2.9,2.9,2.9h6.3c1.6,0,2.9-1.3,2.9-2.9C90.4,145.3,89.1,144,87.5,144z"/>
	<path d="M59.3,56h25c1.6,0,2.9-1.3,2.9-2.9s-1.3-2.9-2.9-2.9h-25c-1.6,0-2.9,1.3-2.9,2.9S57.7,56,59.3,56z"/>
	<path d="M68.7,144H56.2c-1.6,0-2.9,1.3-2.9,2.9c0,1.6,1.3,2.9,2.9,2.9h12.5c1.6,0,2.9-1.3,2.9-2.9C71.6,145.3,70.3,144,68.7,144z"
		/>
	<path d="M184.5,9.4h-81.6V2.9c0-1.6-1.3-2.9-2.9-2.9s-2.9,1.3-2.9,2.9v6.5H15.5C6.9,9.4,0,16.3,0,24.9v125.2
		c0,8.5,6.9,15.5,15.5,15.5h81.6v6.5c0,1.6,1.3,2.9,2.9,2.9s2.9-1.3,2.9-2.9v-6.5h81.6c8.5,0,15.5-6.9,15.5-15.5V24.9
		C200,16.3,193.1,9.4,184.5,9.4z M184.5,15.3c5.3,0,9.6,4.3,9.6,9.6v9.6h-91.2v-6.7h62.8c1.6,0,2.9-1.3,2.9-2.9
		c0-1.6-1.3-2.9-2.9-2.9h-62.8v-6.7H184.5z M15.5,15.3h81.6v6.7H46.8c-1.6,0-2.9,1.3-2.9,2.9c0,1.6,1.3,2.9,2.9,2.9h50.3v6.7H5.9
		v-9.6C5.9,19.6,10.2,15.3,15.5,15.3z M15.5,159.7c-5.3,0-9.6-4.3-9.6-9.6V40.3h91.2v53.4c0,0,0,0,0,0v65.9H15.5z M102.9,115.5h12.7
		c1.8,0,3.3,1.5,3.3,3.3v21.9c0,1.8-1.5,3.3-3.3,3.3h-12.7V115.5z M102.9,95l19-19l16.7,16.7c1.1,1.1,3,1.1,4.2,0l32.6-32.6v33.6
		c0,1.8-1.5,3.3-3.3,3.3h-69.1V95z M140.7,86.5L124,69.7c-1.1-1.1-3-1.1-4.2,0l-16.9,16.9V56h68.3L140.7,86.5z M184.5,159.7h-81.6
		v-9.8h12.7c5.1,0,9.2-4.1,9.2-9.2v-21.9c0-5.1-4.1-9.2-9.2-9.2h-12.7v-6.7H172c5.1,0,9.2-4.1,9.2-9.2V59.3c0-5.1-4.1-9.2-9.2-9.2
		h-69.1v-9.8h91.2v109.8C194.1,155.4,189.8,159.7,184.5,159.7z"/>
</g>
</svg>
