<svg viewBox="0 0 224.6 200">
	<path d="M224.6,100c0-14.9-18.6-29-47.2-37.7C184,33.2,181,10,168.1,2.6c-3-1.7-6.5-2.6-10.3-2.6v10.2c2.1,0,3.8,0.4,5.2,1.2
		c6.2,3.6,8.9,17.2,6.8,34.7c-0.5,4.3-1.3,8.8-2.3,13.5c-9-2.2-18.8-3.9-29.1-5c-6.2-8.5-12.6-16.2-19-22.9
		c14.9-13.9,28.9-21.5,38.5-21.5V0c-12.6,0-29.1,9-45.7,24.5C95.5,9.1,79.1,0.2,66.5,0.2v10.2c9.5,0,23.5,7.6,38.5,21.3
		C98.5,38.5,92.1,46.1,86,54.6c-10.3,1.1-20.1,2.8-29.1,5c-1.1-4.6-1.8-9-2.4-13.3c-2.2-17.5,0.5-31.1,6.7-34.7
		c1.4-0.8,3.2-1.2,5.3-1.2V0.2c-3.8,0-7.3,0.8-10.3,2.6C43.3,10.2,40.4,33.3,47,62.3C18.5,71.1,0,85.2,0,100
		c0,14.9,18.6,29,47.2,37.7c-6.6,29.1-3.7,52.3,9.2,59.7c3,1.7,6.5,2.6,10.3,2.6c12.6,0,29.1-9,45.7-24.5
		c16.7,15.5,33.1,24.4,45.7,24.4c3.8,0,7.3-0.8,10.3-2.6c12.9-7.4,15.7-30.5,9.1-59.6C206,129,224.6,114.9,224.6,100L224.6,100z
		 M165,69.5c-1.7,5.9-3.8,12-6.2,18.1c-1.9-3.7-3.8-7.3-6-11c-2.1-3.7-4.3-7.2-6.6-10.7C152.7,66.8,159,68,165,69.5L165,69.5z
		 M144,118.2c-3.6,6.2-7.2,12-11,17.5c-6.8,0.6-13.7,0.9-20.7,0.9c-6.9,0-13.8-0.3-20.6-0.9c-3.8-5.4-7.5-11.3-11.1-17.4
		c-3.5-6-6.6-12.1-9.5-18.2c2.8-6.1,6-12.3,9.5-18.3c3.6-6.2,7.2-12,11-17.5c6.8-0.6,13.7-0.9,20.7-0.9c6.9,0,13.8,0.3,20.6,0.9
		c3.8,5.4,7.5,11.3,11.1,17.4c3.5,6,6.6,12.1,9.5,18.2C150.6,106.1,147.4,112.2,144,118.2L144,118.2z M158.8,112.3
		c2.5,6.1,4.6,12.3,6.3,18.2c-6,1.5-12.3,2.7-18.9,3.7c2.2-3.5,4.5-7.1,6.6-10.8C155,119.7,156.9,116,158.8,112.3L158.8,112.3z
		 M112.4,161.1c-4.3-4.4-8.5-9.3-12.7-14.6c4.1,0.2,8.3,0.3,12.6,0.3c4.3,0,8.6-0.1,12.7-0.3C120.9,151.8,116.6,156.7,112.4,161.1z
		 M78.3,134.2c-6.5-1-12.8-2.2-18.8-3.6c1.7-5.9,3.8-12,6.2-18.1c1.9,3.7,3.8,7.3,6,11S76.1,130.7,78.3,134.2z M112.2,38.9
		c4.3,4.4,8.5,9.3,12.7,14.6c-4.1-0.2-8.3-0.3-12.6-0.3c-4.3,0-8.6,0.1-12.7,0.3C103.7,48.2,107.9,43.3,112.2,38.9z M78.3,65.9
		c-2.2,3.5-4.5,7.1-6.6,10.8c-2.1,3.7-4.1,7.3-6,11c-2.5-6.1-4.6-12.3-6.3-18.2C65.4,68.1,71.7,66.8,78.3,65.9L78.3,65.9z
		 M36.9,123.2c-16.2-6.9-26.7-16-26.7-23.2s10.5-16.3,26.7-23.2c3.9-1.7,8.2-3.2,12.7-4.6c2.6,9,6,18.3,10.3,27.9
		c-4.2,9.5-7.6,18.8-10.2,27.7C45.1,126.4,40.8,124.9,36.9,123.2L36.9,123.2z M61.5,188.6c-6.2-3.6-8.9-17.2-6.8-34.7
		c0.5-4.3,1.3-8.8,2.3-13.5c9,2.2,18.8,3.9,29.1,5c6.2,8.5,12.6,16.2,19,22.9c-14.9,13.9-28.9,21.5-38.5,21.5
		C64.6,189.8,62.9,189.4,61.5,188.6L61.5,188.6z M170.1,153.7c2.2,17.5-0.5,31.1-6.7,34.7c-1.4,0.8-3.2,1.2-5.3,1.2
		c-9.5,0-23.5-7.6-38.5-21.3c6.4-6.7,12.8-14.4,18.9-22.8c10.3-1.1,20.1-2.8,29.1-5C168.7,145,169.6,149.5,170.1,153.7z
		 M187.7,123.2c-3.9,1.7-8.2,3.2-12.7,4.6c-2.6-9-6-18.3-10.3-27.9c4.2-9.5,7.6-18.8,10.2-27.7c4.5,1.4,8.8,3,12.9,4.7
		c16.2,6.9,26.7,16,26.7,23.2C214.4,107.2,203.9,116.3,187.7,123.2L187.7,123.2z"/>
	<circle cx="112.2" cy="100" r="20.9"/>
	<path d="M157.8,0"/>
</svg>
