
<svg viewBox="0 0 200 200.01">
	<path d="M188.15,114.31c-9.83-5.47-20.14-5.14-30.49-1.43h0a14,14,0,0,0-2.5.94c-1,.63-1.64.29-2.2-.55h0a4.47,4.47,0,0,0-.74-1.82,23.31,23.31,0,0,1-2.93-13.31,38.83,38.83,0,0,1,2-8.12c.61-2,.27-2.78-1.78-3.35-3.15-.88-6.18-.13-9.19.79-.79.25-1,1-1.25,1.66-1,2.31-1,4.89-2,7.18a192.19,192.19,0,0,1-10.77,20.43c-.58,1-.93.88-1.4-.08a23.62,23.62,0,0,1-2-15.42,49,49,0,0,1,1.56-5c.73-2.28,0-3.47-2.42-3.72a21.56,21.56,0,0,0-7.16.43,3.46,3.46,0,0,0-2.87,2.87,25.33,25.33,0,0,1-1.31,4.92c-2.52,5.77-4.95,11.6-7.52,17.36-2.68,6-5,12.1-8.18,17.87a38.33,38.33,0,0,0-2.23,4.38c-.38.45-.81.74-.9-.15a14.26,14.26,0,0,1,0-2.53c.36-3.71,1.65-7.26,2.25-10.93a13.33,13.33,0,0,1,.24-1.43c.8-3.12,1.66-6.22,2.42-9.35.52-2.09-.28-3.4-2.33-4a4,4,0,0,0-3,.06c-1.17.61-1.15.18-1.05-.84a24.32,24.32,0,0,0,.13-4c-.31-5.84-3.91-8.4-9.47-6.69-4.62,1.41-8.26,4.37-11.54,7.83-1.29,1.35-2.28,3.17-3.8,4.08-5.87,3.46-11.89,6.64-17.83,10a1.63,1.63,0,0,1-2.29-.3.56.56,0,0,1,0-.08A77.88,77.88,0,0,0,36,113.6c-5.29-4.19-10.75-8.17-15.21-13.37-4.76-5.54-6.6-11.83-4.7-19,2.5-9.39,9-15.69,16.26-21.42a30.82,30.82,0,0,0,2.94-2.16l2-1.49c.56-.28,1.2-.44,1.56-1,.57-.86,1.56-1.12,2.36-1.62,12.18-7.67,24.94-14,39.14-16.66,8.49-1.6,17-2.09,25.3.74,4,1.38,7.55,3.57,8.84,8.1a15.13,15.13,0,0,1-.09,8.12c-2,7.69-6.8,13.5-12.69,18.41A58.79,58.79,0,0,1,67.82,85.92c-7.33.56-14.17-.42-19.52-6.23-.39-.41-.89-.92-1.58-.47a1.42,1.42,0,0,0-.55,1.62,6.17,6.17,0,0,0,.47,1.37c2.79,5.62,7.69,8.43,13.42,9.81,5.48,1.32,11.1,1.13,16.67.45,12.67-1.56,24.34-5.54,34-14.38,7.89-7.23,13.43-15.77,14.9-26.62.82-6-.19-11.75-4.07-16.7C118,30.26,113.3,27.61,108,25.86c-10.24-3.35-20.69-3.14-31.17-1.29C68.93,26,61.45,28.81,54.12,32,40.29,38,27.38,45.43,16.41,55.93c-5.73,5.46-10.62,11.59-13.78,19C.73,79.38-.49,84,.76,88.92c1.51,5.83,4.8,10.57,8.8,14.86C14.48,109,20.22,113.22,26,117.34c3.93,2.8,7.82,5.65,11.73,8.47,1.2.86,1.34,1.49-.2,2.23-2.53,1.25-5,2.64-7.43,4.1-6.72,4.07-13.33,8.33-18.33,14.59-4.81,6-6.53,12.83-3.94,20.33,1,2.86,2.73,5.38,5.72,6.46a23.49,23.49,0,0,0,11.22.95,30.89,30.89,0,0,0,19.45-10.54c8.3-9.39,10.26-20.37,7.45-32.36-.26-1.11-1.36-2.14-1-3.21s1.91-1.38,2.94-2c2.42-1.49,4.91-2.84,7.76-4.46A58.25,58.25,0,0,0,59,134.72,30.76,30.76,0,0,0,63.4,153c2.33,4,9.05,4.56,11.93.21a67.07,67.07,0,0,0,5-9.65c.73-1.62,1.46-3.24,2.14-4.86-.17,4.06-.35,8,1.17,11.79a4.54,4.54,0,0,0,5.83,2.76,4.26,4.26,0,0,0,.88-.44,12.22,12.22,0,0,0,3.36-3,52.64,52.64,0,0,0,5.33-8.91,255,255,0,0,0,13.08-28c.52-.74.29-2,1.29-2.48.51.42.17,1,.51,1.39.74,5,2.75,9.54,5,14a1.62,1.62,0,0,1,0,2c-1.65,2.31-3.39,4.55-5.2,6.73q-4,4.81-7.84,9.75a4.06,4.06,0,0,0-.78,4.28c.69,1.49,2.25,2,3.95,2a24.9,24.9,0,0,0,15.06-4.67,14.33,14.33,0,0,0,6.54-10.61c.43-3.33-.49-6.39-1.51-9.42a3.54,3.54,0,0,1,.43-3.52,153.27,153.27,0,0,0,10-17.28c.16-.35.21-.89.89-.75a41.18,41.18,0,0,0,4.36,13.37c.82,1.45.59,2.18-.63,3.3-4.86,4.41-8.89,9.41-10,16.22-.8,4.91,2.15,7.86,6.85,6.53a26.52,26.52,0,0,0,13.14-7.93,13.28,13.28,0,0,0,2-14.92h0c-.38-1.19.33-1.6,1.28-1.94a35.67,35.67,0,0,1,11.3-2,51.52,51.52,0,0,1,13.69,1.8h0c.48.24.95.5,1.46.74a19.89,19.89,0,0,1,9,7c2.72,3.91,3.06,8.64.74,12.34a13.17,13.17,0,0,1-4.3,4.07c-.55.35-1.32.69-1,1.49s1.17.65,1.88.47c4.6-1.16,9.07-6.93,9.18-11.74C199.72,124.42,195.36,118.31,188.15,114.31Zm-143,24.1C45,149.82,37,160.29,26.5,163a10.05,10.05,0,0,1-2.5.29c-3.11,0-4.84-1.63-4.9-4.79C19,154,21,150.15,23.73,146.77c3.67-4.46,8.36-7.66,13-10.87,2-1.36,4.08-2.55,6.12-3.84.85-.53,1.36-.56,1.56.66a27.21,27.21,0,0,1,.66,5.69Zm38.95-24h0a16.94,16.94,0,0,0-1.47,5.08,146.93,146.93,0,0,1-8.7,22,17.74,17.74,0,0,1-1.47,2.08,1.44,1.44,0,0,1-1.76,0h0c-.41-.39-.45-1-.74-1.45-2.3-9.74.18-18.5,5.36-26.7h0a13.28,13.28,0,0,1,6.19-6.59h0c1-.65,2-1.7,3.3-.37h0C85.59,110.56,84.78,112.46,84.05,114.37Zm37.08,22.87c-1.54,3-4.06,4.89-6.76,6.64-.37.24-.91.68-1.29.21s.25-.86.53-1.18a116.82,116.82,0,0,0,8.47-10.22A6.57,6.57,0,0,1,121.13,137.24Zm21.82-.37c-.5.25-1.13.74-1.67.34s-.33-1.29-.15-1.89a24.32,24.32,0,0,1,4.4-8.51,5.84,5.84,0,0,1,.83-1c.73-.58,1.08-2.22,2.2-1.73,1,.41.27,1.93.64,2.56a10.89,10.89,0,0,1-6.25,10.2Z"/>
</svg>