<svg viewBox="0 0 200 176.5">
<path d="M78.9,128.4c-0.8,0-1.5-0.3-2.1-0.8l-21.4-18.2c-0.7-0.6-1.2-1.5-1.2-2.5c0-1,0.4-1.9,1.2-2.5l21.4-18.2
	c1.4-1.2,3.5-1,4.7,0.4c1.2,1.4,1,3.5-0.4,4.7l-18.4,15.7l18.4,15.7c1.4,1.2,1.6,3.3,0.4,4.7C80.8,128,79.8,128.4,78.9,128.4z"/>
<path d="M121.1,128.4c-0.9,0-1.9-0.4-2.5-1.2c-1.2-1.4-1-3.5,0.4-4.7l18.4-15.7l-18.4-15.7c-1.4-1.2-1.6-3.3-0.4-4.7
	c1.2-1.4,3.3-1.6,4.7-0.4l21.4,18.2c0.7,0.6,1.2,1.5,1.2,2.5c0,1-0.4,1.9-1.2,2.5l-21.4,18.2C122.6,128.1,121.8,128.4,121.1,128.4z"
	/>
<path d="M92.4,142c-0.2,0-0.5,0-0.7-0.1c-1.8-0.4-2.9-2.1-2.6-3.9l13.3-63.2c0.4-1.8,2.1-2.9,3.9-2.6c1.8,0.4,2.9,2.1,2.6,3.9
	l-13.3,63.2C95.3,140.9,94,142,92.4,142z"/>
<path d="M177.8,176.5H22.2C9.9,176.5,0,166.5,0,154.3V22.2C0,9.9,9.9,0,22.2,0h155.7C190.1,0,200,9.9,200,22.2v132.1
	C200,166.5,190.1,176.5,177.8,176.5z M22.2,6.6c-8.6,0-15.6,7-15.6,15.6v132.1c0,8.6,7,15.6,15.6,15.6h155.7c8.6,0,15.6-7,15.6-15.6
	V22.2c0-8.6-7-15.6-15.6-15.6H22.2z"/>
<path d="M196.7,52.9H3.3c-1.8,0-3.3-1.5-3.3-3.3c0-1.8,1.5-3.3,3.3-3.3h193.4c1.8,0,3.3,1.5,3.3,3.3C200,51.4,198.5,52.9,196.7,52.9
	z"/>
<path d="M56.4,37.1c-5.8,0-10.4-4.7-10.4-10.4c0-5.8,4.7-10.4,10.4-10.4c5.8,0,10.4,4.7,10.4,10.4C66.9,32.4,62.2,37.1,56.4,37.1z
	 M56.4,22.8c-2.1,0-3.8,1.7-3.8,3.8s1.7,3.8,3.8,3.8c2.1,0,3.8-1.7,3.8-3.8S58.5,22.8,56.4,22.8z"/>
<path d="M24.3,37c-5.8,0-10.4-4.7-10.4-10.4s4.7-10.4,10.4-10.4s10.4,4.7,10.4,10.4S30.1,37,24.3,37z M24.3,22.7
	c-2.1,0-3.8,1.7-3.8,3.8c0,2.1,1.7,3.8,3.8,3.8c2.1,0,3.8-1.7,3.8-3.8C28.2,24.4,26.4,22.7,24.3,22.7z"/>
<path d="M88.5,37.2c-5.8,0-10.4-4.7-10.4-10.4c0-5.8,4.7-10.4,10.4-10.4C94.3,16.3,99,21,99,26.7C99,32.5,94.3,37.2,88.5,37.2z
	 M88.5,22.9c-2.1,0-3.8,1.7-3.8,3.8s1.7,3.8,3.8,3.8c2.1,0,3.8-1.7,3.8-3.8S90.6,22.9,88.5,22.9z"/>
</svg>
