<?xml version="1.0" encoding="utf-8"?>
<!-- Generator: Adobe Illustrator 23.0.0, SVG Export Plug-In . SVG Version: 6.00 Build 0)  -->
<svg version="1.1" id="Capa_1" xmlns="http://www.w3.org/2000/svg" xmlns:xlink="http://www.w3.org/1999/xlink" x="0px" y="0px"
	 viewBox="0 0 200 200" style="enable-background:new 0 0 200 200;" xml:space="preserve">
<title>website</title>
<path d="M26.3,31.6L26.3,31.6c1.7,0,3.2-0.8,4.2-2.1l1.1,2.1c2.9,0,5.3-2.4,5.3-5.3s-2.4-5.3-5.3-5.3h-5.3c-2.9,0-5.3,2.4-5.3,5.3
	S23.4,31.6,26.3,31.6z"/>
<path d="M52.6,31.6L52.6,31.6c1.7,0,3.2-0.8,4.2-2.1l1.1,2.1c2.9,0,5.3-2.4,5.3-5.3s-2.4-5.3-5.3-5.3h-5.3c-2.9,0-5.3,2.4-5.3,5.3
	S49.7,31.6,52.6,31.6z"/>
<path d="M78.9,31.6L78.9,31.6c1.7,0,3.2-0.8,4.2-2.1l1.1,2.1c2.9,0,5.3-2.4,5.3-5.3s-2.4-5.3-5.3-5.3h-5.3c-2.9,0-5.3,2.4-5.3,5.3
	S76,31.6,78.9,31.6z"/>
<path d="M115.3,123.7l14.7-14.7c2.1-2.1,2.1-5.4,0-7.4c-0.6-0.6-1.2-1-2-1.2L70.2,79.3c-2.7-1-5.8,0.4-6.7,3.2
	c-0.4,1.2-0.4,2.4,0,3.6l21.1,57.9c0.6,1.7,2,3,3.8,3.4l1.2,0.1c1.4,0,2.7-0.5,3.7-1.5l14.7-14.7l19.9,20c2,2.1,5.4,2.1,7.4,0
	c0,0,0,0,0,0c2.1-2,2.1-5.4,0-7.4c0,0,0,0,0,0L115.3,123.7z M91.6,132.5L77.2,93l39.5,14.4L91.6,132.5z"/>
<path d="M194.7,200c2.9,0,5.3-2.4,5.3-5.3V5.3c0-2.9-2.4-5.3-5.3-5.3H5.3C2.4,0,0,2.4,0,5.3v189.5c0,2.9,2.4,5.3,5.3,5.3H194.7z
	 M10.5,189.5V52.6h84.2c1.4,0,2.7-0.5,3.7-1.5l8.9-9h82.1v147.4H10.5z M189.5,10.5v21.1h-84.2c-1.4,0-2.7,0.5-3.7,1.5l-8.9,9H10.5
	V10.5H189.5z"/>
</svg>
