<svg viewBox="0 0 200 200" style="enable-background:new 0 0 200 200;" xml:space="preserve">
<style type="text/css">
	.st0{fill-rule:evenodd;clip-rule:evenodd;}
</style>
<g transform="matrix(1.0755 0 0 1.0755 -3.5103 -1.6684)">
	<path class="st0" d="M96.2,14.6c20.9,0,39.8,8,54.1,21.1c-7-0.2-13.9,4-14.2,13.5c-0.6,19.2,23,23.3,10.3,61.9L135.9,143
		l-28.6-84.2c-0.4-1.3,0.1-2,1.7-2h8.1c0.4,0,0.8-0.4,0.8-0.8v-4.8c0-0.4-0.3-0.8-0.8-0.8c-15.3,0.7-30.5,0.7-45.6,0
		c-0.4,0-0.8,0.4-0.8,0.8v4.8c0,0.4,0.3,0.8,0.8,0.8h8.1c1.8,0,2.3,0.6,2.7,1.8L94,90.6L76.4,144l-29-85.5c-0.4-1.1,0.1-1.7,1.1-1.7
		h9.3c0.4,0,0.8-0.4,0.8-0.8v-4.8c0-0.4-0.3-0.8-0.8-0.8C48,50.9,38.2,51,29.1,51.1C43.4,29.1,68.1,14.6,96.2,14.6L96.2,14.6
		L96.2,14.6z M166.6,56.5c6.1,11.3,9.6,24.3,9.6,38.1c0,30.2-16.8,56.6-41.6,70.2l24.9-70.6C163.4,83.1,167,68.4,166.6,56.5
		L166.6,56.5L166.6,56.5z M123,169.9c-8.4,3-17.4,4.6-26.8,4.6c-8.1,0-15.9-1.2-23.3-3.4l24.6-70.6L123,169.9L123,169.9L123,169.9z
		 M62,166.8C35,154,16.3,126.4,16.3,94.5c0-11.8,2.6-23.1,7.2-33.2L62,166.8L62,166.8L62,166.8z M96.2,7.1
		c48.3,0,87.5,39.2,87.5,87.5S144.5,182,96.2,182S8.8,142.8,8.8,94.5S48,7.1,96.2,7.1z M96.2,1.6c51.3,0,93,41.6,93,93
		s-41.6,93-93,93s-93-41.6-93-93S44.9,1.6,96.2,1.6z"/>
</g>
</svg>
