<svg xmlns="http://www.w3.org/2000/svg" viewBox="0 0 271.6 161.25"><title>Recurso 10</title><g id="Capa_2" data-name="Capa 2"><g id="Capa_1-2" data-name="Capa 1"><path d="M247.56,4.07c4.16,4.25,8.38,8.43,12.75,12.47a22,22,0,0,1,3.17,2.93c2.5,2.49,5,5,7.51,7.48.84.8.78,1.39,0,2.14-2.43,2.37-4.76,4.85-7.24,7.17a7.29,7.29,0,0,0-1.34,1.13c-3.71,3.72-7.43,7.41-11.12,11.14C244.41,54.87,238,61.69,231.17,68.1c-2.28,2.25-4.53,4.53-6.8,6.8-.69.64-1.3,1.36-2.05,1.95a8.05,8.05,0,0,0-1.42,1.25c-3.59,3.59-7.08,7.29-10.8,10.74-5,4.66-9.7,9.64-14.62,14.39a13.46,13.46,0,0,0-1.86,1.59c-3.84,3.86-7.61,7.79-11.57,11.53-3.19,3-6.31,6.12-9.42,9.22-6.08,6-12.14,12-18.25,17.88-4.68,4.54-9.24,9.2-13.93,13.72-1.21,1.16-2.52,2.2-3.65,3.45-.6.68-1.34.94-2.1.14-3-3.11-6.07-6.07-9.18-9a1.32,1.32,0,0,1-.39-.55q-5.53-5.51-11.09-11c-1.35-1.33-2.75-2.62-4.12-3.93a41.32,41.32,0,0,1-3.76-3.49c-2.78-2.86-5.65-5.62-8.6-8.32-2.56-2.34-4.89-5-7.37-7.42-2.16-2.13-4.38-4.2-6.61-6.26-4.19-3.86-8.13-8-12.16-12.05a8.89,8.89,0,0,0-1.62-1.44c-.83-.68-1.53-1.49-2.32-2.22-3.1-3.13-6.23-6.24-9.34-9.36a6.46,6.46,0,0,0-1.14-1c-.64-.51-1.17-1.13-1.77-1.68-3.64-3.67-7.31-7.31-11-11a6.11,6.11,0,0,0-1.14-1c-.64-.51-1.17-1.12-1.75-1.67-.82-.84-1.65-1.66-2.49-2.47-2.84-2.87-5.7-5.7-8.55-8.56a6.93,6.93,0,0,0-1.14-.95C25,53.51,21,49.36,17,45.32a9.3,9.3,0,0,0-1.64-1.43c-2.16-1.87-3.9-4.16-6-6.11C6.66,35.27,4.19,32.57,1.55,30,1.2,29.19-.2,28.83,0,28s1.19-1.41,1.86-2.08Q14.57,13.47,27.24,1C28,.32,28.36.23,29.15,1Q48.26,19.79,67.42,38.53l39.72,38.93c.32.32.69.58,1,.86a2.84,2.84,0,0,1,1.32.91c1.07,1,2.1,2.12,3.16,3.18C119,88.83,125.7,95,132,101.48c.95,1,2,1.81,3,2.74a.88.88,0,0,0,1.49-.07c.06-.07.13-.12.19-.19,6-6.21,12.46-12,18.47-18.21q27.21-26.4,54.16-53.06c4.63-4.32,9.1-8.8,13.56-13.29.14-.14.27-.28.41-.41,5.34-4.94,10.41-10.17,15.58-15.29,1.12-1.11,2.4-2.06,3.49-3.21.44-.46,1.06-.74,1.54-.17C245,1.67,246.4,2.75,247.56,4.07Z"/></g></g></svg>