<svg id="Capa_1" data-name="Capa 1" xmlns="http://www.w3.org/2000/svg" viewBox="0 0 271.6 161.25"><title>arrow</title><path d="M422.83,82c4.16,4.26,8.38,8.44,12.75,12.48a21.47,21.47,0,0,1,3.17,2.93c2.5,2.49,5,5,7.52,7.47.83.81.77,1.4,0,2.15-2.44,2.37-4.76,4.85-7.25,7.16a7,7,0,0,0-1.34,1.14c-3.71,3.71-7.43,7.41-11.12,11.14-6.89,6.33-13.31,13.15-20.12,19.57-2.29,2.25-4.54,4.53-6.81,6.8-.69.64-1.3,1.36-2,1.95a8.12,8.12,0,0,0-1.43,1.25c-3.59,3.59-7.08,7.29-10.8,10.74-5,4.65-9.7,9.64-14.62,14.39a12.81,12.81,0,0,0-1.86,1.59c-3.84,3.86-7.61,7.78-11.56,11.52-3.2,3-6.31,6.12-9.43,9.23-6.08,6-12.13,11.95-18.25,17.88-4.68,4.53-9.24,9.19-13.93,13.71-1.21,1.16-2.52,2.21-3.64,3.46-.61.67-1.34.94-2.11.13-3-3.1-6.07-6.06-9.18-9a1.27,1.27,0,0,1-.38-.54c-3.7-3.67-7.39-7.35-11.1-11-1.35-1.34-2.74-2.62-4.12-3.93a41.43,41.43,0,0,1-3.76-3.5c-2.78-2.85-5.65-5.61-8.59-8.31-2.57-2.34-4.9-5-7.38-7.42-2.15-2.14-4.37-4.2-6.6-6.26-4.2-3.86-8.14-8-12.17-12a8.53,8.53,0,0,0-1.62-1.44c-.83-.68-1.53-1.5-2.31-2.22-3.11-3.14-6.24-6.24-9.35-9.36a6.12,6.12,0,0,0-1.14-1c-.64-.51-1.17-1.13-1.77-1.68-3.64-3.67-7.31-7.31-11-11a6.12,6.12,0,0,0-1.14-1c-.63-.51-1.16-1.12-1.75-1.67-.82-.84-1.65-1.66-2.49-2.48-2.84-2.86-5.7-5.7-8.54-8.55a7.51,7.51,0,0,0-1.15-1c-4.16-4-8.16-8.12-12.25-12.17a9.67,9.67,0,0,0-1.64-1.42c-2.16-1.88-3.9-4.16-6-6.11-2.67-2.51-5.14-5.22-7.78-7.75-.35-.84-1.75-1.2-1.52-2.06s1.19-1.42,1.87-2.08q12.68-12.42,25.34-24.85c.74-.73,1.13-.81,1.91,0q19.11,18.8,38.27,37.52l39.73,38.94c.31.31.68.57,1,.86a2.77,2.77,0,0,1,1.32.91c1.08,1,2.11,2.12,3.16,3.18,6.38,6.42,13.05,12.55,19.35,19.07.94,1,2,1.8,3,2.74a.87.87,0,0,0,1.48-.07c.06-.07.13-.13.19-.19,6-6.21,12.47-12,18.47-18.22q27.21-26.4,54.16-53.06c4.63-4.31,9.11-8.79,13.57-13.29.13-.14.26-.27.4-.4,5.35-5,10.41-10.17,15.58-15.29,1.12-1.12,2.4-2.06,3.49-3.21.45-.46,1.07-.74,1.54-.17C420.29,79.57,421.68,80.65,422.83,82Z" transform="translate(-175.27 -77.9)"/></svg>