<svg xmlns="http://www.w3.org/2000/svg" viewBox="0 0 189.91 62.82"><title>css</title><g id="Capa_2" data-name="Capa 2"><g id="Capa_1-2" data-name="Capa 1"><path d="M189.9,62.82H132.32l-1.27-1.27V47.25l1.46-1.46h26.68a10.65,10.65,0,0,0-1.14-2.2c-5.86-6.25-11.8-12.41-17.61-18.69-3.21-3.47-6.22-7.13-9.54-11V1.39L132.31,0H189a13.33,13.33,0,0,1,.82,3.06c.09,4.14,0,8.29,0,12.34l-1.5,1.49H162.28c1.85,2.59,3.26,4.59,4.69,6.58a2.89,2.89,0,0,0,.35.35L189.9,47.44Z"/><path d="M119.8.07V16.94h-27c.16.82.09,1.4.35,1.68q5.6,6.21,11.28,12.33c5.38,5.79,10.78,11.56,16.35,17.54V62.73H62c-.12-2.56,0-5.34-.05-8.11s0-5.61,0-8.76H88.75c.08-.67.27-1.12.13-1.29-2.41-2.84-4.77-5.74-7.31-8.47C75.73,29.83,69.83,23.63,63.9,17.43a6.94,6.94,0,0,1-2-5.17c.06-3.65,0-7.3,0-10.86L63.23.07Z"/><path d="M0,62.72V.05H49.55l1.33,1.34v16a2,2,0,0,1-.31.35.85.85,0,0,1-.42.17H21.06V44.56L22.52,46H50.8v16.7Z"/></g></g></svg>