<svg class="skill__images-git" version="1.1" viewBox="0 0 1024 1024" xmlns="http://www.w3.org/2000/svg">
      <path d="m1004.5 466.38l-447-447a65.905 65.905 0 0 0 -93.226 0l-103.85 103.85 78.126 78.126a95.978 95.978 0 0 1 128.03 128.03l127.97 127.97a95.978 95.978 0 1 1 -45.237 45.237l-127.97-127.97a100.39 100.39 0 0 1 -9.4058 3.9031v266.88a95.978 95.978 0 1 1 -63.985 0v-266.88a95.978 95.978 0 0 1 -54.643 -131.87l-78.126-78.126-295.8 295.8a66.033 66.033 0 0 0 0 93.29l447 447a65.905 65.905 0 0 0 93.226 0l444.89-444.89a66.033 66.033 0 0 0 0 -93.29z"/>
      </svg>