      <svg class="skill__images-js" viewBox="0 0 53.35 50.19">
        <g id="Capa_2" data-name="Capa 2">
          <g id="Capa_1-2" data-name="Capa 1">
            <path d="M0,45.51l4.82-4.9a6.72,6.72,0,0,0,5.26,2.74c2.95,0,5-1.59,5-6.27V.58h7.56V37.37c0,8.35-4.61,12.75-12,12.75C6,50.12,2.59,48.68,0,45.51Z"/>
            <path d="M26.85,45.29,31.32,40c1.94,1.8,4.25,3.53,7.78,3.53,4.1,0,6.77-2.45,6.77-6.05v-.57c0-2.88-1.37-5-5-8l-4.76-4C31.68,21,29,17.57,29,12v-.5C29,4.68,34.06,0,41.33,0A16,16,0,0,1,51.55,3.1L48,8.86a10.21,10.21,0,0,0-6.41-2.24c-2.88,0-5.25,1.88-5.25,4.68v.36c0,3.1,1.58,5,4.89,7.71l4.9,4.1c4.75,4,7.27,7.78,7.27,13.11v.72c0,7.34-5,12.89-14,12.89C33.55,50.19,29.74,48.24,26.85,45.29Z"/>
          </g>
        </g>
      </svg>