<svg xmlns="http://www.w3.org/2000/svg" viewBox="0 0 271.74 203.98"><defs><style>.cls-1{fill:#1a1a1a;}</style></defs><title>sass</title><g id="Capa_2" data-name="Capa 2"><g id="Capa_1-2" data-name="Capa 1"><path class="cls-1" d="M256.23,122.61c-13.41-7.36-27.46-6.92-41.58-1.92h0a19,19,0,0,0-3.41,1.27c-1.38.84-2.23.39-3-.74h0a5.9,5.9,0,0,0-1-2.46,31,31,0,0,1-4-17.92c.28-3.82,1.62-7.33,2.7-10.93.83-2.76.37-3.75-2.43-4.52-4.29-1.18-8.43-.17-12.53,1.07-1.08.33-1.32,1.32-1.71,2.24-1.32,3.11-1.41,6.58-2.75,9.66-4.17,9.55-9.39,18.55-14.69,27.51-.78,1.33-1.26,1.19-1.9-.1A31.42,31.42,0,0,1,167.16,105a66.73,66.73,0,0,1,2.12-6.79c1-3.07-.05-4.67-3.29-5a29.49,29.49,0,0,0-9.77.58,4.67,4.67,0,0,0-3.91,3.86,32.76,32.76,0,0,1-1.79,6.62c-3.44,7.78-6.75,15.62-10.25,23.38-3.65,8.05-6.89,16.29-11.15,24.06-.93,2-2.37,3.76-3.05,5.9-.52.61-1.1,1-1.22-.2a17.7,17.7,0,0,1,.07-3.41c.48-5,2.25-9.77,3.06-14.72.1-.64.17-1.3.33-1.92,1.09-4.2,2.26-8.38,3.3-12.59.71-2.82-.38-4.58-3.18-5.39a5.5,5.5,0,0,0-4.09.08c-1.6.83-1.57.24-1.43-1.13a32.35,32.35,0,0,0,.18-5.39c-.43-7.86-5.34-11.3-12.91-9-6.31,1.89-11.27,5.88-15.74,10.54-1.76,1.82-3.11,4.27-5.19,5.49-8,4.67-16.21,8.94-24.31,13.41a2.22,2.22,0,0,1-3.19-.5c-3.9-4.23-8.49-7.69-13-11.22-7.22-5.64-14.66-11-20.74-18-6.49-7.47-9-15.93-6.41-25.54C25,65.48,33.86,57,43.77,49.28a39.49,39.49,0,0,0,4-2.91l2.8-2c.77-.38,1.64-.6,2.13-1.41.78-1.15,2.12-1.5,3.22-2.18,16.6-10.32,34-18.82,53.37-22.43,11.57-2.16,23.12-2.81,34.49,1,5.53,1.85,10.3,4.81,12.06,10.9a20.13,20.13,0,0,1-.12,10.94c-2.75,10.35-9.28,18.17-17.3,24.79a80.72,80.72,0,0,1-46.27,18.4c-10,.76-19.32-.56-26.62-8.38-.53-.56-1.21-1.24-2.15-.63a1.87,1.87,0,0,0-.75,2.17,8.11,8.11,0,0,0,.64,1.85c3.8,7.57,10.48,11.35,18.29,13.21,7.48,1.78,15.14,1.52,22.74.6,17.27-2.1,33.19-7.45,46.39-19.36C161.44,64.11,169,52.6,171,38c1.12-8.11-.26-15.82-5.55-22.49-4.82-6.08-11.29-9.64-18.49-12C133-1,118.75-.72,104.46,1.78c-10.8,1.89-21,5.71-31,10C54.61,19.84,37,29.87,22.05,44,14.23,51.35,7.56,59.61,3.26,69.56.66,75.58-1,81.79.71,88.43c2.05,7.84,6.54,14.23,12,20,6.7,7,14.53,12.72,22.45,18.27,5.36,3.77,10.67,7.6,16,11.4,1.64,1.16,1.82,2-.27,3-3.45,1.69-6.83,3.56-10.13,5.53-9.17,5.47-18.18,11.21-25,19.64-6.56,8.12-8.91,17.27-5.38,27.37,1.35,3.86,3.73,7.25,7.8,8.7a32.32,32.32,0,0,0,15.31,1.28,42.3,42.3,0,0,0,26.52-14.19C71.33,176.78,74,162,70.17,145.85c-.36-1.49-1.86-2.88-1.35-4.32s2.6-1.85,4-2.69c3.3-2,6.7-3.83,10.59-6a76.87,76.87,0,0,0-3.29,17.26,41.13,41.13,0,0,0,6,24.59c3.18,5.33,12.34,6.13,16.27.28a89.65,89.65,0,0,0,6.88-13c1-2.18,2-4.36,2.92-6.54-.23,5.47-.47,10.78,1.6,15.88a6.2,6.2,0,0,0,9.15,3.12,16.67,16.67,0,0,0,4.58-4c3-3.64,5.05-7.85,7.27-12a343,343,0,0,0,17.83-37.75c.71-1,.4-2.67,1.76-3.35.7.57.23,1.38.7,1.88,1,6.72,3.75,12.85,6.78,18.86.46.92.79,1.65,0,2.69q-3.39,4.67-7.1,9.07-5.44,6.49-10.69,13.13c-1.33,1.68-2,3.75-1.06,5.76s3.07,2.65,5.38,2.74c7.6.28,14.34-2.19,20.54-6.29a19.3,19.3,0,0,0,8.92-14.29c.58-4.49-.67-8.6-2.06-12.69a4.69,4.69,0,0,1,.59-4.74,204.59,204.59,0,0,0,13.68-23.27c.23-.46.29-1.19,1.22-1,1.11,6.28,2.77,12.44,5.95,18,1.11,1.95.8,2.94-.87,4.44-6.62,5.94-12.11,12.67-13.62,21.84-1.09,6.61,2.94,10.59,9.34,8.8A36.16,36.16,0,0,0,210,151.58a17.73,17.73,0,0,0,2.79-20.09h0c-.52-1.61.45-2.16,1.74-2.62a49.36,49.36,0,0,1,15.41-2.66,70.85,70.85,0,0,1,18.66,2.42h0c.66.32,1.3.68,2,1a27.15,27.15,0,0,1,12.26,9.48c3.71,5.26,4.17,11.63,1,16.61a17.7,17.7,0,0,1-5.86,5.49c-.75.47-1.8.93-1.35,2s1.6.88,2.56.64c6.27-1.57,12.37-9.33,12.52-15.81C272,136.23,266.06,128,256.23,122.61ZM61.16,155.06c-.07,15.37-11,29.47-25.36,33.17a13.6,13.6,0,0,1-3.4.39c-4.25,0-6.6-2.19-6.69-6.45-.13-6.15,2.52-11.3,6.32-15.85,5-6,11.39-10.31,17.76-14.63,2.71-1.83,5.57-3.44,8.35-5.17,1.16-.72,1.85-.76,2.12.89A35.47,35.47,0,0,1,61.16,155.06Zm53.12-32.37v0a22.44,22.44,0,0,0-2,6.85c-3.33,10.13-6.94,20.16-11.87,29.65a26.48,26.48,0,0,1-2,2.8A2,2,0,0,1,96,162h0c-.55-.53-.61-1.33-1-1.95-3.14-13.12.24-24.91,7.31-35.95h0c1.88-3.84,4.47-7,8.43-8.88h0c1.42-.87,2.78-2.29,4.5-.5h0C116.38,117.57,115.27,120.12,114.28,122.69Zm50.56,30.8c-2.1,4-5.54,6.59-9.22,8.94-.5.32-1.24.92-1.76.28s.34-1.16.72-1.58a156.21,156.21,0,0,0,11.56-13.77A8.72,8.72,0,0,1,164.84,153.49Zm29.75-.5c-.68.34-1.54,1-2.28.46s-.45-1.73-.2-2.55a32.67,32.67,0,0,1,6-11.45,7.8,7.8,0,0,1,1.13-1.29c1-.79,1.48-3,3-2.34,1.31.55.37,2.6.88,3.45C203,145.86,200,150.21,194.59,153Z"/></g></g></svg>