<?xml version="1.0" encoding="UTF-8" standalone="no"?>
<svg
   xmlns:dc="http://purl.org/dc/elements/1.1/"
   xmlns:cc="http://creativecommons.org/ns#"
   xmlns:rdf="http://www.w3.org/1999/02/22-rdf-syntax-ns#"
   xmlns:svg="http://www.w3.org/2000/svg"
   xmlns="http://www.w3.org/2000/svg"
   xmlns:sodipodi="http://sodipodi.sourceforge.net/DTD/sodipodi-0.dtd"
   xmlns:inkscape="http://www.inkscape.org/namespaces/inkscape"
   viewBox="0 0 200.00001 200"
   version="1.1"
   id="svg3729"
   sodipodi:docname="sass.svg"
   width="200"
   height="200"
   inkscape:version="0.92.4 (5da689c313, 2019-01-14)">
  <metadata
     id="metadata3735">
    <rdf:RDF>
      <cc:Work
         rdf:about="">
        <dc:format>image/svg+xml</dc:format>
        <dc:type
           rdf:resource="http://purl.org/dc/dcmitype/StillImage" />
        <dc:title></dc:title>
      </cc:Work>
    </rdf:RDF>
  </metadata>
  <defs
     id="defs3733" />
  <sodipodi:namedview
     pagecolor="#ffffff"
     bordercolor="#666666"
     borderopacity="1"
     objecttolerance="10"
     gridtolerance="10"
     guidetolerance="10"
     inkscape:pageopacity="0"
     inkscape:pageshadow="2"
     inkscape:window-width="1920"
     inkscape:window-height="1001"
     id="namedview3731"
     showgrid="false"
     fit-margin-top="0"
     fit-margin-left="0"
     fit-margin-right="0"
     fit-margin-bottom="0"
     inkscape:zoom="3.9611727"
     inkscape:cx="91.425878"
     inkscape:cy="102.0253"
     inkscape:window-x="-9"
     inkscape:window-y="-9"
     inkscape:window-maximized="1"
     inkscape:current-layer="Capa_2" />
  <g
     id="Capa_2"
     data-name="Capa 2"
     transform="translate(-0.01283119,-4.0152926)">
    <g
       id="Capa_1-2"
       data-name="Capa 1"
       transform="matrix(0.73335901,0,0,0.74263423,0.25586987,27.261505)">
      <path
         class="cls-1"
         d="m 256.23,122.61 c -13.41,-7.36 -27.46,-6.92 -41.58,-1.92 v 0 a 19,19 0 0 0 -3.41,1.27 c -1.38,0.84 -2.23,0.39 -3,-0.74 v 0 a 5.9,5.9 0 0 0 -1,-2.46 31,31 0 0 1 -4,-17.92 c 0.28,-3.82 1.62,-7.33 2.7,-10.93 0.83,-2.76 0.37,-3.75 -2.43,-4.52 -4.29,-1.18 -8.43,-0.17 -12.53,1.07 -1.08,0.33 -1.32,1.32 -1.71,2.24 -1.32,3.11 -1.41,6.58 -2.75,9.66 -4.17,9.55 -9.39,18.55 -14.69,27.51 -0.78,1.33 -1.26,1.19 -1.9,-0.1 a 31.42,31.42 0 0 1 -2.77,-20.77 66.73,66.73 0 0 1 2.12,-6.79 c 1,-3.07 -0.05,-4.67 -3.29,-5 a 29.49,29.49 0 0 0 -9.77,0.58 4.67,4.67 0 0 0 -3.91,3.86 32.76,32.76 0 0 1 -1.79,6.62 c -3.44,7.78 -6.75,15.62 -10.25,23.38 -3.65,8.05 -6.89,16.29 -11.15,24.06 -0.93,2 -2.37,3.76 -3.05,5.9 -0.52,0.61 -1.1,1 -1.22,-0.2 a 17.7,17.7 0 0 1 0.07,-3.41 c 0.48,-5 2.25,-9.77 3.06,-14.72 0.1,-0.64 0.17,-1.3 0.33,-1.92 1.09,-4.2 2.26,-8.38 3.3,-12.59 0.71,-2.82 -0.38,-4.58 -3.18,-5.39 a 5.5,5.5 0 0 0 -4.09,0.08 c -1.6,0.83 -1.57,0.24 -1.43,-1.13 a 32.35,32.35 0 0 0 0.18,-5.39 c -0.43,-7.86 -5.34,-11.3 -12.91,-9 -6.31,1.89 -11.27,5.88 -15.74,10.54 -1.76,1.82 -3.11,4.27 -5.19,5.49 -8,4.67 -16.21,8.94 -24.31,13.41 a 2.22,2.22 0 0 1 -3.19,-0.5 c -3.9,-4.23 -8.49,-7.69 -13,-11.22 -7.22,-5.64 -14.66,-11 -20.74,-18 C 21.52,96.19 19.01,87.73 21.6,78.12 25,65.48 33.86,57 43.77,49.28 a 39.49,39.49 0 0 0 4,-2.91 l 2.8,-2 c 0.77,-0.38 1.64,-0.6 2.13,-1.41 0.78,-1.15 2.12,-1.5 3.22,-2.18 16.6,-10.32 34,-18.82 53.37,-22.43 11.57,-2.16 23.12,-2.81 34.49,1 5.53,1.85 10.3,4.81 12.06,10.9 a 20.13,20.13 0 0 1 -0.12,10.94 c -2.75,10.35 -9.28,18.17 -17.3,24.79 A 80.72,80.72 0 0 1 92.15,84.38 C 82.15,85.14 72.83,83.82 65.53,76 65,75.44 64.32,74.76 63.38,75.37 a 1.87,1.87 0 0 0 -0.75,2.17 8.11,8.11 0 0 0 0.64,1.85 c 3.8,7.57 10.48,11.35 18.29,13.21 7.48,1.78 15.14,1.52 22.74,0.6 17.27,-2.1 33.19,-7.45 46.39,-19.36 C 161.44,64.11 169,52.6 171,38 172.12,29.89 170.74,22.18 165.45,15.51 160.63,9.43 154.16,5.87 146.96,3.51 133,-1 118.75,-0.72 104.46,1.78 c -10.8,1.89 -21,5.71 -31,10 C 54.61,19.84 37,29.87 22.05,44 14.23,51.35 7.56,59.61 3.26,69.56 0.66,75.58 -1,81.79 0.71,88.43 c 2.05,7.84 6.54,14.23 12,20 6.7,7 14.53,12.72 22.45,18.27 5.36,3.77 10.67,7.6 16,11.4 1.64,1.16 1.82,2 -0.27,3 -3.45,1.69 -6.83,3.56 -10.13,5.53 -9.17,5.47 -18.18,11.21 -25,19.64 -6.56,8.12 -8.91,17.27 -5.38,27.37 1.35,3.86 3.73,7.25 7.8,8.7 a 32.32,32.32 0 0 0 15.31,1.28 42.3,42.3 0 0 0 26.52,-14.19 C 71.33,176.78 74,162 70.17,145.85 c -0.36,-1.49 -1.86,-2.88 -1.35,-4.32 0.51,-1.44 2.6,-1.85 4,-2.69 3.3,-2 6.7,-3.83 10.59,-6 a 76.87,76.87 0 0 0 -3.29,17.26 41.13,41.13 0 0 0 6,24.59 c 3.18,5.33 12.34,6.13 16.27,0.28 a 89.65,89.65 0 0 0 6.88,-13 c 1,-2.18 2,-4.36 2.92,-6.54 -0.23,5.47 -0.47,10.78 1.6,15.88 a 6.2,6.2 0 0 0 9.15,3.12 16.67,16.67 0 0 0 4.58,-4 c 3,-3.64 5.05,-7.85 7.27,-12 a 343,343 0 0 0 17.83,-37.75 c 0.71,-1 0.4,-2.67 1.76,-3.35 0.7,0.57 0.23,1.38 0.7,1.88 1,6.72 3.75,12.85 6.78,18.86 0.46,0.92 0.79,1.65 0,2.69 q -3.39,4.67 -7.1,9.07 -5.44,6.49 -10.69,13.13 c -1.33,1.68 -2,3.75 -1.06,5.76 0.94,2.01 3.07,2.65 5.38,2.74 7.6,0.28 14.34,-2.19 20.54,-6.29 a 19.3,19.3 0 0 0 8.92,-14.29 c 0.58,-4.49 -0.67,-8.6 -2.06,-12.69 a 4.69,4.69 0 0 1 0.59,-4.74 204.59,204.59 0 0 0 13.68,-23.27 c 0.23,-0.46 0.29,-1.19 1.22,-1 1.11,6.28 2.77,12.44 5.95,18 1.11,1.95 0.8,2.94 -0.87,4.44 -6.62,5.94 -12.11,12.67 -13.62,21.84 -1.09,6.61 2.94,10.59 9.34,8.8 a 36.16,36.16 0 0 0 17.92,-10.68 17.73,17.73 0 0 0 2.79,-20.09 v 0 c -0.52,-1.61 0.45,-2.16 1.74,-2.62 a 49.36,49.36 0 0 1 15.41,-2.66 70.85,70.85 0 0 1 18.66,2.42 v 0 c 0.66,0.32 1.3,0.68 2,1 a 27.15,27.15 0 0 1 12.26,9.48 c 3.71,5.26 4.17,11.63 1,16.61 a 17.7,17.7 0 0 1 -5.86,5.49 c -0.75,0.47 -1.8,0.93 -1.35,2 0.45,1.07 1.6,0.88 2.56,0.64 6.27,-1.57 12.37,-9.33 12.52,-15.81 C 272,136.23 266.06,128 256.23,122.61 Z M 61.16,155.06 c -0.07,15.37 -11,29.47 -25.36,33.17 a 13.6,13.6 0 0 1 -3.4,0.39 c -4.25,0 -6.6,-2.19 -6.69,-6.45 -0.13,-6.15 2.52,-11.3 6.32,-15.85 5,-6 11.39,-10.31 17.76,-14.63 2.71,-1.83 5.57,-3.44 8.35,-5.17 1.16,-0.72 1.85,-0.76 2.12,0.89 a 35.47,35.47 0 0 1 0.9,7.65 z m 53.12,-32.37 v 0 a 22.44,22.44 0 0 0 -2,6.85 c -3.33,10.13 -6.94,20.16 -11.87,29.65 a 26.48,26.48 0 0 1 -2,2.8 A 2,2 0 0 1 96,162 v 0 c -0.55,-0.53 -0.61,-1.33 -1,-1.95 -3.14,-13.12 0.24,-24.91 7.31,-35.95 v 0 c 1.88,-3.84 4.47,-7 8.43,-8.88 v 0 c 1.42,-0.87 2.78,-2.29 4.5,-0.5 v 0 c 1.14,2.85 0.03,5.4 -0.96,7.97 z m 50.56,30.8 c -2.1,4 -5.54,6.59 -9.22,8.94 -0.5,0.32 -1.24,0.92 -1.76,0.28 -0.52,-0.64 0.34,-1.16 0.72,-1.58 a 156.21,156.21 0 0 0 11.56,-13.77 8.72,8.72 0 0 1 -1.3,6.13 z m 29.75,-0.5 c -0.68,0.34 -1.54,1 -2.28,0.46 -0.74,-0.54 -0.45,-1.73 -0.2,-2.55 a 32.67,32.67 0 0 1 6,-11.45 7.8,7.8 0 0 1 1.13,-1.29 c 1,-0.79 1.48,-3 3,-2.34 1.31,0.55 0.37,2.6 0.88,3.45 -0.12,6.59 -3.12,10.94 -8.53,13.73 z"
         id="path3725"
         inkscape:connector-curvature="0" />
    </g>
  </g>
</svg>
